<svg width="510" height="388" fill="none" xmlns="http://www.w3.org/2000/svg"><path d="M460.2.5L254.9 1 49.6 0h-.1C21.9 0 0 25.9 0 58.3v271.4C0 362.1 21.9 388 49.5 388h411c27.6 0 49.5-25.9 49.5-58.3V58.3C510 25.9 488.3.5 460.2.5zm-16.1 40L260.7 208.2l-.7.6-.6.7c-2.2 2.4-4.8 2.7-6.2 2.7-1.4 0-4-.4-6.1-2.9l-.6-.7L71.2 39.7l183.7 1.2 189.2-.4zM460.5 348h-411c-3.5 0-9.5-6.6-9.5-18.3v-265l177.6 171.6c9 10 21.7 15.8 35.2 16h.6c13.3 0 25.7-5.5 34.8-15.1l182-166.6v259.1c-.2 11.7-6.2 18.3-9.7 18.3z" fill="#F0AB00"/></svg>