<svg width="104" height="56" fill="none" xmlns="http://www.w3.org/2000/svg"><path d="M18.04 21.18c-1.416 0-2.82-.24-4.212-.72s-2.52-1.2-3.384-2.16c-.264-.288-.372-.612-.324-.972.048-.36.228-.672.54-.936.336-.24.684-.336 1.044-.288.36.048.66.204.9.468.576.672 1.332 1.188 2.268 1.548.96.36 2.016.54 3.168.54 1.776 0 3.06-.3 3.852-.9.792-.624 1.2-1.368 1.224-2.232 0-.864-.408-1.572-1.224-2.124-.816-.576-2.16-1.02-4.032-1.332-2.424-.384-4.2-1.056-5.328-2.016-1.128-.96-1.692-2.1-1.692-3.42 0-1.224.324-2.244.972-3.06.648-.816 1.512-1.428 2.592-1.836 1.08-.408 2.268-.612 3.564-.612 1.608 0 2.988.276 4.14.828 1.176.552 2.124 1.296 2.844 2.232.24.312.336.636.288.972-.048.336-.24.612-.576.828-.288.168-.624.228-1.008.18a1.7 1.7 0 01-.936-.54c-.6-.696-1.296-1.2-2.088-1.512-.792-.336-1.704-.504-2.736-.504-1.32 0-2.376.276-3.168.828-.792.528-1.188 1.2-1.188 2.016 0 .552.144 1.032.432 1.44.312.408.828.768 1.548 1.08.744.312 1.776.576 3.096.792 1.8.288 3.216.72 4.248 1.296 1.056.552 1.8 1.212 2.232 1.98.456.744.684 1.56.684 2.448 0 1.128-.336 2.124-1.008 2.988-.648.84-1.56 1.5-2.736 1.98-1.152.48-2.484.72-3.996.72zm21.206 0c-1.848 0-3.504-.432-4.968-1.296a9.854 9.854 0 01-3.492-3.6c-.84-1.512-1.26-3.216-1.26-5.112 0-1.92.432-3.636 1.296-5.148a9.678 9.678 0 013.6-3.564c1.512-.888 3.216-1.332 5.112-1.332s3.588.444 5.076 1.332a9.412 9.412 0 013.564 3.564c.888 1.512 1.344 3.228 1.368 5.148l-1.116.864c0 1.728-.408 3.288-1.224 4.68a8.936 8.936 0 01-3.276 3.276c-1.368.792-2.928 1.188-4.68 1.188zm.288-2.52c1.392 0 2.628-.324 3.708-.972a6.912 6.912 0 002.592-2.664c.648-1.152.972-2.436.972-3.852 0-1.44-.324-2.724-.972-3.852a6.912 6.912 0 00-2.592-2.664c-1.08-.672-2.316-1.008-3.708-1.008-1.368 0-2.604.336-3.708 1.008a7.178 7.178 0 00-2.628 2.664c-.648 1.128-.972 2.412-.972 3.852 0 1.416.324 2.7.972 3.852a7.178 7.178 0 002.628 2.664c1.104.648 2.34.972 3.708.972zM48.138 21c-.408 0-.744-.12-1.008-.36-.264-.264-.396-.6-.396-1.008v-6.156l.684-2.844 2.124.54v8.46c0 .408-.132.744-.396 1.008-.264.24-.6.36-1.008.36zm10.18 8.568a1.77 1.77 0 01-.649-.144c-.816-.36-1.044-.936-.684-1.728L68.613 2.064c.36-.768.936-.984 1.728-.648.816.336 1.044.9.684 1.692L59.361 28.74c-.24.552-.588.828-1.044.828zm3.995-9.18c-.36.168-.696.204-1.008.108-.312-.12-.564-.36-.756-.72L52.521 3.144c-.168-.36-.192-.696-.072-1.008.12-.312.36-.552.72-.72.36-.168.696-.192 1.008-.072.312.096.552.324.72.684l7.884 16.632c.192.36.252.696.18 1.008-.072.312-.288.552-.648.72zm20.316.792c-1.848 0-3.504-.432-4.968-1.296a9.854 9.854 0 01-3.492-3.6c-.84-1.512-1.26-3.216-1.26-5.112 0-1.92.432-3.636 1.296-5.148a9.678 9.678 0 013.6-3.564c1.512-.888 3.216-1.332 5.112-1.332s3.588.444 5.076 1.332a9.412 9.412 0 013.564 3.564c.888 1.512 1.344 3.228 1.368 5.148l-1.116.864c0 1.728-.408 3.288-1.224 4.68a8.936 8.936 0 01-3.276 3.276c-1.368.792-2.928 1.188-4.68 1.188zm.288-2.52c1.392 0 2.628-.324 3.708-.972a6.912 6.912 0 002.592-2.664c.648-1.152.972-2.436.972-3.852 0-1.44-.324-2.724-.972-3.852a6.912 6.912 0 00-2.592-2.664c-1.08-.672-2.316-1.008-3.708-1.008-1.368 0-2.604.336-3.708 1.008A7.178 7.178 0 0076.58 7.32c-.648 1.128-.972 2.412-.972 3.852 0 1.416.324 2.7.972 3.852a7.178 7.178 0 002.628 2.664c1.104.648 2.34.972 3.708.972zM91.52 21c-.408 0-.744-.12-1.008-.36-.264-.264-.396-.6-.396-1.008v-6.156l.684-2.844 2.124.54v8.46c0 .408-.132.744-.396 1.008-.264.24-.6.36-1.008.36zM10.307 55c-1.272 0-2.412-.3-3.42-.9a6.553 6.553 0 01-2.34-2.448c-.576-1.056-.864-2.256-.864-3.6V30.448c0-.408.12-.744.36-1.008.264-.264.6-.396 1.008-.396.408 0 .744.132 1.008.396s.396.6.396 1.008v17.604c0 1.224.36 2.232 1.08 3.024.72.768 1.644 1.152 2.772 1.152h.972c.384 0 .696.132.936.396.24.264.36.6.36 1.008 0 .408-.144.744-.432 1.008-.288.24-.648.36-1.08.36h-.756zM1.343 38.44c-.36 0-.66-.108-.9-.324-.24-.24-.36-.528-.36-.864 0-.36.12-.648.36-.864.24-.24.54-.36.9-.36h9.18c.36 0 .66.12.9.36.24.216.36.504.36.864 0 .336-.12.624-.36.864-.24.216-.54.324-.9.324h-9.18zm16.897 4.428c.072-1.488.456-2.82 1.152-3.996.72-1.176 1.644-2.1 2.772-2.772 1.152-.672 2.424-1.008 3.816-1.008 1.104 0 1.956.156 2.556.468.6.312.828.768.684 1.368-.096.36-.264.6-.504.72-.216.12-.492.168-.828.144a60.887 60.887 0 00-1.08-.072c-1.344-.12-2.544.024-3.6.432-1.032.384-1.86.984-2.484 1.8-.6.816-.9 1.788-.9 2.916H18.24zM18.456 55c-.432 0-.768-.12-1.008-.36s-.36-.576-.36-1.008V36.676c0-.432.12-.768.36-1.008s.576-.36 1.008-.36c.432 0 .768.12 1.008.36s.36.576.36 1.008v16.956c0 .432-.12.768-.36 1.008s-.576.36-1.008.36zm22.354.18c-1.848 0-3.504-.432-4.968-1.296a9.854 9.854 0 01-3.492-3.6c-.84-1.512-1.26-3.216-1.26-5.112 0-1.92.433-3.636 1.296-5.148a9.678 9.678 0 013.6-3.564c1.513-.888 3.217-1.332 5.113-1.332 1.896 0 3.588.444 5.076 1.332a9.412 9.412 0 013.564 3.564c.888 1.512 1.344 3.228 1.367 5.148l-1.116.864c0 1.728-.407 3.288-1.224 4.68a8.936 8.936 0 01-3.276 3.276c-1.367.792-2.928 1.188-4.68 1.188zm.288-2.52c1.392 0 2.629-.324 3.709-.972a6.912 6.912 0 002.591-2.664c.648-1.152.972-2.436.972-3.852 0-1.44-.323-2.724-.971-3.852a6.912 6.912 0 00-2.593-2.664c-1.08-.672-2.316-1.008-3.707-1.008-1.368 0-2.604.336-3.708 1.008a7.178 7.178 0 00-2.628 2.664c-.648 1.128-.972 2.412-.972 3.852 0 1.416.324 2.7.972 3.852a7.178 7.178 0 002.628 2.664c1.104.648 2.34.972 3.708.972zM49.704 55c-.409 0-.745-.12-1.009-.36-.264-.264-.396-.6-.396-1.008v-6.156l.684-2.844 2.124.54v8.46c0 .408-.132.744-.395 1.008-.264.24-.6.36-1.008.36zm12.437 0c-.576 0-1.008-.312-1.296-.936l-7.992-16.956a1.158 1.158 0 01-.036-.936c.12-.312.36-.552.72-.72.336-.168.66-.192.972-.072.312.12.552.336.72.648l7.668 16.596H61.42l7.56-16.596c.144-.336.384-.552.72-.648.36-.12.708-.108 1.044.036.336.168.564.42.684.756.12.312.108.612-.036.9l-7.884 16.992c-.288.624-.744.936-1.368.936zm21.391.18c-1.944 0-3.672-.42-5.184-1.26a9.49 9.49 0 01-3.528-3.564c-.84-1.512-1.26-3.24-1.26-5.184 0-1.968.396-3.696 1.188-5.184.816-1.512 1.932-2.7 3.348-3.564 1.416-.864 3.048-1.296 4.896-1.296 1.824 0 3.408.42 4.752 1.26 1.368.816 2.424 1.956 3.168 3.42.744 1.464 1.116 3.132 1.116 5.004 0 .384-.12.696-.36.936-.24.216-.552.324-.936.324h-15.3v-2.304H91.02l-1.548 1.116c.024-1.392-.228-2.64-.756-3.744s-1.284-1.968-2.268-2.592c-.96-.624-2.112-.936-3.456-.936-1.368 0-2.568.324-3.6.972-1.032.648-1.836 1.548-2.412 2.7-.552 1.128-.828 2.424-.828 3.888s.312 2.76.936 3.888a7.178 7.178 0 002.628 2.664c1.104.648 2.376.972 3.816.972.864 0 1.728-.144 2.592-.432.888-.312 1.596-.696 2.124-1.152.264-.216.564-.324.9-.324.336-.024.624.06.864.252.312.288.468.6.468.936.024.336-.108.624-.396.864-.792.672-1.8 1.236-3.024 1.692-1.224.432-2.4.648-3.528.648zm17.434-.18a4.47 4.47 0 01-2.592-.792c-.744-.528-1.332-1.26-1.764-2.196-.408-.936-.612-2.016-.612-3.24v-20.52c0-.408.12-.732.36-.972.264-.264.6-.396 1.008-.396.408 0 .732.132.972.396.264.24.396.564.396.972v20.52c0 1.032.204 1.872.612 2.52.432.648.972.972 1.62.972h.9c.36 0 .648.132.864.396.216.24.324.564.324.972 0 .408-.156.744-.468 1.008-.288.24-.672.36-1.152.36h-.468z" fill="#fff"/></svg>